HIERARCHY
ROOT Hips
{
	OFFSET 0.000000 0.000000 0.000000
	CHANNELS 6 Xposition Yposition Zposition Xrotation Yrotation Zrotation
	JOINT LeftUpLeg_virtual
	{
		OFFSET 0.000000 0.000000 0.000000
		CHANNELS 3 Xrotation Yrotation Zrotation
		JOINT LeftUpLeg
		{
			OFFSET 13.026900 -6.336304 -1.092800
			CHANNELS 3 Xrotation Yrotation Zrotation
			JOINT LeftLeg
			{
				OFFSET 0.524474 -46.096886 9.782700
				CHANNELS 3 Xrotation Yrotation Zrotation
				JOINT LeftFoot
				{
					OFFSET -0.524474 -53.427422 -12.948200
					CHANNELS 3 Xrotation Yrotation Zrotation
					JOINT LeftToeBase
					{
						OFFSET 0.192200 -14.009700 16.364100
						CHANNELS 3 Xrotation Yrotation Zrotation
						JOINT LeftToe_End
						{
							OFFSET -1.784700 -0.561700 9.474800
							CHANNELS 3 Xrotation Yrotation Zrotation
							End Site
							{
								OFFSET 0 0 0
							}
						}
					}
				}
			}
		}
	}
	JOINT RightUpLeg_virtual
	{
		OFFSET 0.000000 0.000000 0.000000
		CHANNELS 3 Xrotation Yrotation Zrotation
		JOINT RightUpLeg
		{
			OFFSET -12.883000 -6.336304 -1.092800
			CHANNELS 3 Xrotation Yrotation Zrotation
			JOINT RightLeg
			{
				OFFSET -0.524587 -46.096825 9.782800
				CHANNELS 3 Xrotation Yrotation Zrotation
				JOINT RightFoot
				{
					OFFSET 0.524587 -53.427383 -12.948300
					CHANNELS 3 Xrotation Yrotation Zrotation
					JOINT RightToeBase
					{
						OFFSET -0.192200 -14.009700 16.364100
						CHANNELS 3 Xrotation Yrotation Zrotation
						JOINT RightToe_End
						{
							OFFSET 1.784700 -0.561700 9.474800
							CHANNELS 3 Xrotation Yrotation Zrotation
							End Site
							{
								OFFSET 0 0 0
							}
						}
					}
				}
			}
		}
	}
	JOINT Spine_virtual
	{
		OFFSET 0.000000 0.000000 0.000000
		CHANNELS 3 Xrotation Yrotation Zrotation
		JOINT Spine
		{
			OFFSET 0.072000 7.257294 -0.789700
			CHANNELS 3 Xrotation Yrotation Zrotation
			JOINT Spine1
			{
				OFFSET 0.000000 12.508769 -0.658067
				CHANNELS 3 Xrotation Yrotation Zrotation
				JOINT Spine1_split
				{
					OFFSET 0.000000 12.508769 -0.658067
					CHANNELS 3 Xrotation Yrotation Zrotation
					JOINT Spine2
					{
						OFFSET 0.000000 12.508769 -0.658067
						CHANNELS 3 Xrotation Yrotation Zrotation
						JOINT Neck_virtual
						{
							OFFSET 0.000000 0.000000 0.000000
							CHANNELS 3 Xrotation Yrotation Zrotation
							JOINT Neck
							{
								OFFSET 0.000000 14.033295 7.520400
								CHANNELS 3 Xrotation Yrotation Zrotation
								JOINT Head
								{
									OFFSET 0.000000 8.198502 5.703100
									CHANNELS 3 Xrotation Yrotation Zrotation
									JOINT HeadTop_End
									{
										OFFSET 0.000000 17.760803 13.332701
										CHANNELS 3 Xrotation Yrotation Zrotation
										End Site
										{
											OFFSET 0 0 0
										}
									}
								}
							}
						}
						JOINT LeftShoulder_virtual
						{
							OFFSET 0.000000 0.000000 0.000000
							CHANNELS 3 Xrotation Yrotation Zrotation
							JOINT LeftShoulder
							{
								OFFSET 6.292450 5.785301 -0.669000
								CHANNELS 3 Xrotation Yrotation Zrotation
								JOINT LeftShoulder_split
								{
									OFFSET 6.292450 5.785301 -0.669000
									CHANNELS 3 Xrotation Yrotation Zrotation
									JOINT LeftArm
									{
										OFFSET 13.907140 -6.093903 1.965100
										CHANNELS 3 Xrotation Yrotation Zrotation
										JOINT LeftForeArm
										{
											OFFSET 34.140198 0.000000 0.000000
											CHANNELS 3 Xrotation Yrotation Zrotation
											JOINT LeftHand
											{
												OFFSET 40.960209 0.000000 0.000000
												CHANNELS 3 Xrotation Yrotation Zrotation
												End Site
												{
													OFFSET 0 0 0
												}
											}
										}
									}
								}
							}
						}
						JOINT RightShoulder_virtual
						{
							OFFSET 0.000000 0.000000 0.000000
							CHANNELS 3 Xrotation Yrotation Zrotation
							JOINT RightShoulder
							{
								OFFSET -6.292450 5.785301 -0.669000
								CHANNELS 3 Xrotation Yrotation Zrotation
								JOINT RightShoulder_split
								{
									OFFSET -6.292450 5.785301 -0.669000
									CHANNELS 3 Xrotation Yrotation Zrotation
									JOINT RightArm
									{
										OFFSET -13.907140 -6.093903 1.965100
										CHANNELS 3 Xrotation Yrotation Zrotation
										JOINT RightForeArm
										{
											OFFSET -34.140198 0.000000 0.000000
											CHANNELS 3 Xrotation Yrotation Zrotation
											JOINT RightHand
											{
												OFFSET -40.960209 0.000000 0.000000
												CHANNELS 3 Xrotation Yrotation Zrotation
												End Site
												{
													OFFSET 0 0 0
												}
											}
										}
									}
								}
							}
						}
					}
				}
			}
		}
	}
}
MOTION
Frames: 8
Frame Time: 0.03333333
-7.858869 114.670074 -10.523380 0.000000 0.000000 0.000000 -10.938862 -1.872659 3.956041 -9.131870 7.324341 -0.740857 21.684654 2.674011 -1.224860 -6.468527 5.037552 1.996395 -2.012506 0.128183 -0.315808 0.000000 0.000000 0.000000 -9.902137 -3.208346 3.653472 -15.923305 -11.214696 -14.532139 35.028236 0.837101 -0.550268 -7.298952 -16.241442 3.475433 -2.430686 0.323037 0.081076 0.000000 0.000000 0.000000 -9.833015 -1.828015 4.099255 6.691714 1.564738 -2.707604 14.398128 2.749143 -1.644083 0.457020 -1.895936 0.352127 0.000000 0.000000 0.000000 14.057918 2.504693 -2.179110 29.879250 -1.752862 -5.893191 1.288133 -1.486616 -5.275381 0.000000 0.000000 0.000000 14.948760 3.081074 -2.963354 -3.082627 -22.979885 -26.323503 -1.790826 -0.723949 -4.089045 -0.401716 -43.160218 -29.097511 9.755183 -24.579327 0.225074 0.000000 0.000000 0.000000 14.471668 3.075521 -2.515403 0.242320 23.201912 23.384940 0.340066 0.907807 1.892628 -9.269915 20.492927 39.278659 36.015311 42.882933 -16.207501 0.000000 0.000000 0.000000 
-7.240355 115.056892 -10.380131 0.000000 0.000000 0.000000 -11.623215 -2.665684 4.514026 -6.218942 8.150735 -1.496425 18.589502 2.457013 -1.308033 -5.652655 4.685413 1.433840 -1.151984 0.218381 -0.465376 0.000000 0.000000 0.000000 -10.734762 -3.001882 4.213962 -14.322030 -12.153990 -15.789659 33.717406 1.019135 -0.585228 -7.312606 -15.060419 3.848987 -2.246810 0.250160 0.148567 0.000000 0.000000 0.000000 -11.301058 -1.529671 4.526426 6.639042 1.484981 -3.475164 13.006901 2.828670 -2.026982 0.876079 -2.024410 0.345084 0.000000 0.000000 0.000000 12.561340 2.603523 -2.368014 28.304890 -0.977627 -5.912307 0.736208 -0.101241 -5.529371 0.000000 0.000000 0.000000 13.528650 3.163149 -3.074679 -1.832379 -21.905935 -22.919212 -2.205377 -0.634741 -3.644698 -0.618103 -40.335487 -31.788284 8.565178 -23.682895 0.068800 0.000000 0.000000 0.000000 13.154412 3.142967 -2.676176 0.811593 21.634464 22.062889 0.568246 0.823192 2.248708 -4.460783 22.821329 40.277427 33.886450 45.316003 -15.358929 0.000000 0.000000 0.000000 
-6.779990 115.214806 -10.047169 0.000000 0.000000 0.000000 -11.677685 -3.281597 4.798668 -4.246611 8.712207 -2.050545 16.193009 2.326533 -1.301126 -4.957068 4.176959 1.012563 -0.643955 0.254623 -0.530394 0.000000 0.000000 0.000000 -10.985219 -2.741564 4.565269 -13.285922 -12.664999 -16.695646 32.871826 1.221592 -0.561975 -7.513550 -14.029296 4.380956 -2.529326 0.202082 0.099130 0.000000 0.000000 0.000000 -11.896312 -1.081539 4.736071 6.436130 1.330844 -4.143048 11.609317 2.876040 -2.378026 1.074459 -2.132961 0.151490 0.000000 0.000000 0.000000 11.163517 2.653292 -2.565683 26.669942 -0.374392 -5.217843 -0.138644 0.919535 -5.427692 0.000000 0.000000 0.000000 12.122851 3.193221 -3.131037 -0.449277 -20.840079 -18.722126 -2.733579 -0.568556 -3.217314 -0.612779 -35.930080 -34.530096 8.961288 -24.338489 0.555302 0.000000 0.000000 0.000000 11.773585 3.138306 -2.831318 1.482869 19.895474 19.830916 0.678498 0.804121 2.462227 -0.493581 23.686560 41.813055 32.775909 47.055506 -15.444726 0.000000 0.000000 0.000000 
-6.513600 115.171097 -9.675030 0.000000 0.000000 0.000000 -11.399327 -3.672527 4.802416 -3.311309 9.133384 -2.328437 14.754339 2.300551 -1.256102 -4.284431 3.606055 0.888485 -0.545265 0.238508 -0.477346 0.000000 0.000000 0.000000 -10.810965 -2.651691 4.703814 -12.833140 -12.692112 -17.327939 32.416880 1.454741 -0.485980 -7.530981 -13.229513 5.071453 -3.216900 0.171200 -0.032606 0.000000 0.000000 0.000000 -11.851182 -0.806923 4.705918 6.038066 1.163303 -4.588332 10.261548 2.873299 -2.647080 1.460746 -2.268012 0.077741 0.000000 0.000000 0.000000 9.890510 2.634404 -2.738747 24.816213 0.062161 -4.087279 -1.409169 1.615062 -5.022340 0.000000 0.000000 0.000000 10.847000 3.127732 -3.168845 0.895452 -19.691627 -14.442829 -3.366093 -0.756697 -3.206590 0.178813 -30.248937 -37.180121 10.836575 -25.318254 1.448603 0.000000 0.000000 0.000000 10.420204 3.068298 -2.964678 2.134848 18.102016 17.088800 0.280651 1.028282 2.736072 1.878847 22.694943 43.988040 32.823389 47.641239 -16.372797 0.000000 0.000000 0.000000 
-6.364559 115.014816 -9.360996 0.000000 0.000000 0.000000 -11.064370 -3.970956 4.613923 -3.120877 9.418602 -2.458886 14.121812 2.452620 -1.185260 -3.838413 3.264743 1.191057 -0.541255 0.203264 -0.414080 0.000000 0.000000 0.000000 -10.439066 -2.904077 4.678082 -12.797608 -12.385804 -17.725934 32.188602 1.620917 -0.376179 -7.307756 -12.798082 5.624024 -3.848748 0.147069 -0.156351 0.000000 0.000000 0.000000 -11.394416 -0.967983 4.488451 5.513041 1.014024 -4.788043 8.992848 2.823378 -2.797132 1.655767 -2.074964 0.339248 0.000000 0.000000 0.000000 8.784522 2.551844 -2.850104 22.764324 0.372801 -2.935655 -2.884607 1.975744 -4.453447 0.000000 0.000000 0.000000 9.722037 2.989485 -3.199847 2.027309 -18.425409 -10.854319 -4.216001 -1.010767 -3.298984 1.015973 -23.898499 -39.960756 13.911792 -25.010155 2.429969 0.000000 0.000000 0.000000 9.175336 2.961101 -3.037938 2.667608 16.433567 14.440509 -0.383114 1.440059 3.134126 2.490350 19.924502 46.755350 33.758736 46.926941 -17.646224 0.000000 0.000000 0.000000 
-6.254472 114.853973 -9.093616 0.000000 0.000000 0.000000 -10.793350 -4.086628 4.355410 -3.330381 9.566412 -2.582569 13.882701 2.757142 -1.071170 -3.764055 3.215081 1.765321 -0.330013 0.190989 -0.434234 0.000000 0.000000 0.000000 -10.061720 -3.419424 4.556646 -12.911815 -11.923330 -17.905727 31.910251 1.631988 -0.225088 -7.117083 -12.761186 5.728185 -4.035817 0.130018 -0.206864 0.000000 0.000000 0.000000 -10.874182 -1.526418 4.221336 4.868656 0.886527 -4.777624 7.837464 2.736644 -2.821630 1.855358 -1.956497 0.615653 0.000000 0.000000 0.000000 7.812848 2.425881 -2.855233 20.585394 0.556514 -2.138841 -4.175862 2.101614 -3.892613 0.000000 0.000000 0.000000 8.759987 2.807318 -3.170490 2.877382 -17.108545 -8.218653 -5.124015 -1.280681 -3.477003 0.679056 -17.207500 -43.133423 17.318091 -22.965434 2.997862 0.000000 0.000000 0.000000 8.102126 2.823032 -3.017381 3.041715 15.060041 12.341525 -1.242402 1.730929 3.797803 1.676128 15.815798 49.928297 35.157647 45.125646 -18.705694 0.000000 0.000000 0.000000 
-6.164884 114.785851 -8.886318 0.000000 0.000000 0.000000 -10.640862 -4.160247 4.135763 -3.370056 9.602549 -2.730431 13.620859 3.019099 -0.916867 -4.002937 3.282139 2.200580 -0.135899 0.212846 -0.505956 0.000000 0.000000 0.000000 -9.833110 -3.955512 4.442463 -12.889983 -11.532751 -17.924462 31.492687 1.488501 -0.060270 -7.076970 -13.006496 5.363992 -3.837001 0.131851 -0.173795 0.000000 0.000000 0.000000 -10.471821 -2.313137 3.993567 4.223628 0.776530 -4.664373 6.844463 2.615491 -2.763036 2.136555 -1.770826 0.931666 0.000000 0.000000 0.000000 6.956265 2.289805 -2.752002 18.401665 0.655080 -1.870516 -4.974571 2.109571 -3.484712 0.000000 0.000000 0.000000 7.896094 2.617651 -3.066269 3.409882 -15.737094 -6.673601 -6.028827 -1.601689 -3.264915 -0.932428 -10.205618 -46.262596 20.586737 -19.971362 2.903248 0.000000 0.000000 0.000000 7.238437 2.666411 -2.913573 3.294395 14.028216 11.065712 -1.887543 2.140100 4.034606 0.139606 11.174745 53.006725 36.676808 42.733283 -19.166901 0.000000 0.000000 0.000000 
-6.054564 114.801193 -8.622120 0.000000 0.000000 0.000000 -10.626219 -4.316149 4.022012 -3.021921 9.537628 -2.876492 13.271519 3.122521 -0.729992 -4.308461 3.299388 2.327474 -0.175741 0.257855 -0.609982 0.000000 0.000000 0.000000 -9.804999 -4.404372 4.366706 -12.644815 -11.296516 -17.854475 31.020575 1.277006 0.097771 -7.085296 -13.416397 4.841741 -3.619646 0.147960 -0.083175 0.000000 0.000000 0.000000 -10.288645 -3.050232 3.879915 3.659177 0.665856 -4.542716 6.033771 2.488347 -2.680867 2.004054 -1.194035 1.028685 0.000000 0.000000 0.000000 6.228833 2.167987 -2.574212 16.326440 0.647751 -2.112265 -5.048399 1.925824 -3.261148 0.000000 0.000000 0.000000 7.116626 2.468200 -2.895943 3.702613 -14.411434 -5.978868 -6.517507 -2.246370 -2.709128 -3.653604 -3.227231 -48.929122 23.385729 -17.100984 2.213106 0.000000 0.000000 0.000000 6.579489 2.508390 -2.762023 3.425635 13.303882 10.573053 -2.322998 2.449150 3.650751 -1.435905 6.564072 55.593403 37.968588 40.127396 -18.856047 0.000000 0.000000 0.000000 
